<svg data-v-0dd9719b="" version="1.0" xmlns="http://www.w3.org/2000/svg" xmlns:xlink="http://www.w3.org/1999/xlink" width="100%" height="100%" viewBox="0 0 340.000000 250.000000" preserveAspectRatio="xMidYMid meet" color-interpolation-filters="sRGB" style="margin: auto;"> <rect data-v-0dd9719b="" x="0" y="0" width="100%" height="100%" fill="#fff" fill-opacity="1" class="background"></rect> <rect data-v-0dd9719b="" x="0" y="0" width="100%" height="100%" fill="url(#watermark)" fill-opacity="1" class="watermarklayer"></rect> <g data-v-0dd9719b="" fill="#3699ea" class="icon-text-wrapper icon-svg-group iconsvg" transform="translate(63.25,96.67753791814367)"><g class="iconsvg-imagesvg" transform="translate(0,0)"><g><rect fill="#3699ea" fill-opacity="0" stroke-width="2" x="0" y="0" width="60" height="56.644921310763486" class="image-rect"></rect> <svg x="0" y="0" width="60" height="56.644921310763486" filtersec="colorsb8720243728" class="image-svg-svg primary" style="overflow: visible;"><svg xmlns="http://www.w3.org/2000/svg" viewBox="-0.003525275969877839 -0.0038033658638596535 264.3553466796875 249.5738983154297"><g><g fill="#3699ea"><path d="M88.26 14.26a19 19 0 0 0 18.69 5.47l65.67-17a1.38 1.38 0 0 0-.37-2.73L87.36 1a5 5 0 0 0-3.63 8.44zM204.69 14.78a10.81 10.81 0 0 0-14-7l-65.62 23.58a5.34 5.34 0 0 0-.92 9.62l98.48 58.41a4.39 4.39 0 0 0 6.43-5.06zM103 177.28a6.6 6.6 0 0 0 9.88 5.69l99.32-57.07.09-.05a6.62 6.62 0 0 0 .08-11.44L112.1 54.94a6.42 6.42 0 0 0-9.7 5.55zM263.73 136.83a5.62 5.62 0 0 0-5.94-8.11 18.67 18.67 0 0 0-14.57 12.6l-27.67 85.05a.92.92 0 0 0 1.69.7zM258.31 113.62a4.34 4.34 0 0 0 4.7-6.3L217.6 22.4a.76.76 0 0 0-1.39.63L246 103.09a16.74 16.74 0 0 0 12.31 10.53zM75.55 180.29a5.87 5.87 0 0 0 9.24-4.84l-.53-112.18A5.5 5.5 0 0 0 75.34 59L3.2 116.43A8.46 8.46 0 0 0 3.62 130zM2.32 99.68a1.64 1.64 0 0 0 2.53 2l66.77-62a11.35 11.35 0 0 0 .6-16l-7.49-8.08A8.45 8.45 0 0 0 51.25 17zM107.85 219.33a15.23 15.23 0 0 0-17.45 5.08l-10.09 13.38a5.83 5.83 0 0 0 4.51 9.35l93.49 2.43a1.9 1.9 0 0 0 .71-3.67zM226.49 147.65a4.73 4.73 0 0 0-6.94-5.3l-95.85 55.31a5.83 5.83 0 0 0 .5 10.36l66.92 30.4a9.55 9.55 0 0 0 13.2-6.28zM74.21 215.48a11.75 11.75 0 0 0-2.06-16.19L6 146.19a2.07 2.07 0 0 0-3.08 2.67l47.64 80.84a7.54 7.54 0 0 0 12.54.68z"></path></g></g></svg></svg> <!----></g></g> <g transform="translate(67,3.096212387084961)"><g data-gra="path-name" fill-rule="" class="tp-name iconsvg-namesvg" transform="translate(0,0)"><g transform="scale(1)"><g><path d="M7.8-17.6L7.8-31.11 14.11-31.11 14.11-17.6 35.75-17.6 35.75-11.98 27.58-11.98Q27.86-10.55 28.23-9.54L28.23-9.54Q29.05-7.36 30.41-5.3L30.41-5.3Q32.96-1.71 35.02-0.9L35.02-0.9 35.02 4.35 34.96 4.35Q30.19 4.35 25.99-0.46L25.99-0.46Q25.99-0.51 25.66-0.86L25.66-0.86Q24.46-2.44 23.86-3.56L23.86-3.56Q23.12-4.88 22.46-6.61L22.46-6.61Q21.95-7.95 21.49-9.93L21.49-9.93Q21.34-10.77 21.18-11.98L21.18-11.98 14.11-11.98 14.11-0.88 18.85-0.88 18.85 4.39 7.8 4.39 7.8-11.98 3.01-11.98 1.6-17.6 7.8-17.6ZM25.88-29.93L25.88-30.34 32.1-30.34 32.1-29.93Q32.1-24.72 27.2-21.75L27.2-21.75Q25.91-20.98 24.61-20.5L24.61-20.5Q20.61-19.03 16.3-19.03L16.3-19.03 16.28-19.07 16.28-24.35Q18.02-24.35 20.98-25.29L20.98-25.29Q25.88-27.11 25.88-29.93L25.88-29.93ZM57.9-6.17L57.9-30.74 63.83-30.74 63.83-6.17 57.9-6.17ZM39.18-30.3L39.18-30.3 45.46-30.3Q46.05-29.25 46.82-27.14L46.82-27.14Q47.24-25.99 47.64-24.26L47.64-24.26Q47.9-22.94 47.9-22.39L47.9-22.39 41.62-22.39Q41.62-23.27 40.45-26.96L40.45-26.96 39.55-29.36Q39.22-30.12 39.18-30.3ZM50.71-26.13L50.71-28.28 56.12-28.28 56.12-24.41Q56.12-11.91 51.5-9.21L51.5-9.21Q50.82-8.77 49.64-8.5L49.64-8.5Q49.55-8.5 49.22-8.44L49.22-8.44 49.2-8.48 49.2-14.37Q49.2-14.41 49.46-14.92L49.46-14.92Q49.9-15.89 50.14-16.98L50.14-16.98Q50.71-19.16 50.71-26.13L50.71-26.13ZM65.59-26.04L65.59-28.28 71.02-28.28 71.02-25.38Q71.02-18.5 71.76-16.28L71.76-16.28Q72.05-15.29 72.4-14.61L72.4-14.61Q72.51-14.48 72.51-14.39L72.51-14.39 72.51-8.44Q71.26-8.61 70.36-9.12L70.36-9.12Q68.47-10.22 67.43-12.59L67.43-12.59Q66.97-13.43 66.45-15.56L66.45-15.56Q65.59-18.81 65.59-26.04L65.59-26.04ZM39.18-20.57L39.18-20.57 45.46-20.57Q46.45-18.57 47.35-15.45L47.35-15.45Q47.92-13.34 47.92-12.33L47.92-12.33 47.88-12.3 41.62-12.3Q41.26-14.17 40.67-16.24L40.67-16.24Q39.9-18.92 39.18-20.57ZM41.62-10.31L41.62-10.31 47.9-10.31 47.9-10.28Q46.58-4.68 45.66 1.93L45.66 1.93Q45.46 3.78 45.46 4.39L45.46 4.39 39.16 4.39Q39.18 1.38 40.8-6.97L40.8-6.97Q41.24-8.85 41.62-10.31ZM66.86-7.32L66.86-7.32 72.88-7.32Q72.88-6.68 72.4-5.16L72.4-5.16Q70.93-1.43 65.68 1.1L65.68 1.1Q64.62 1.56 63.87 1.85L63.87 1.85Q61.96 2.64 58.07 3.52L58.07 3.52Q53.33 4.39 49.59 4.39L49.59 4.39 49.15 4.39 49.15-0.51 49.17-0.51Q51.97-0.51 56.98-1.56L56.98-1.56Q60.64-2.46 62.86-3.54L62.86-3.54Q64.07-4.09 65.37-5.1L65.37-5.1Q66.45-6.15 66.56-6.55L66.56-6.55Q66.73-6.83 66.86-7.32ZM96.48-28.41L96.48-30.61 102.44-30.61 102.44-28.41 104.13-28.41 103.6-30.21 108.79-30.21Q109.07-29.82 109.47-28.56L109.47-28.56Q109.47-28.41 109.51-28.41L109.51-28.41 110.65-28.41 110.65-23.51 103.1-23.51Q103.51-22.35 104.08-21.29L104.08-21.29Q104.48-20.68 104.48-20.61L104.48-20.61 104.52-20.61Q105.31-21.38 105.45-21.82L105.45-21.82Q105.49-21.97 105.49-22.02L105.49-22.02 110.74-22.02Q110.74-20.98 110.08-19.42L110.08-19.42Q109.69-18.61 109.05-17.71L109.05-17.71Q108.46-17.03 108.13-16.68L108.13-16.68Q109.16-15.91 110.26-15.4L110.26-15.4Q110.61-15.25 110.74-15.16L110.74-15.16 110.74-9.91Q110.28-9.91 108.46-10.33L108.46-10.33Q105.49-11.1 102.9-13.18L102.9-13.18Q101.07-12.33 98.57-11.65L98.57-11.65Q97.23-11.29 95.71-11.05L95.71-11.05 95.71-16.3Q97.67-16.83 98.94-17.4L98.94-17.4Q99.14-17.49 99.18-17.51L99.18-17.51Q98.39-18.79 97.65-20.74L97.65-20.74Q97.25-21.77 96.88-23.51L96.88-23.51 83.61-23.51 83.61-22.26 94.37-22.26 94.37-10.28 87.01-10.28 85.56-14.83 88.07-14.83 88.07-17.36 83.28-17.36Q83.23-17.36 83.14-16.61L83.14-16.61Q82.77-14.85 82.31-13.8L82.31-13.8Q81.89-12.88 81.23-12.06L81.23-12.06Q79.43-9.91 76.03-9.91L76.03-9.91 76.03-15.51 76.35-15.71Q76.6-16.02 76.75-16.57L76.75-16.57Q77.3-18.48 77.3-25.95L77.3-25.95 77.3-28.41 96.48-28.41ZM78.24-0.53L78.24-9.07 109.29-9.07 109.29-0.53 110.59-0.53 110.59 4.39 77.83 4.39Q77.78 4.39 77.48 3.25L77.48 3.25Q77.43 3.19 76.38-0.53L76.38-0.53 78.24-0.53ZM86.75-4.15L84.55-4.15 84.55-0.53 86.75-0.53 86.75-4.15ZM94.86-4.15L92.68-4.15 92.68-0.53 94.86-0.53 94.86-4.15ZM102.99-4.15L100.81-4.15 100.81-0.53 102.99-0.53 102.99-4.15ZM139.22-31.05L139.22-31.05 144.03-31.05Q144.07-31.05 144.07-31L144.07-31 144.07-23.75 148.1-23.75 148.1-19.2 144.8-19.2 144.8-19.18Q144.8-15.75 145.48-9.95L145.48-9.95Q146.12-5.47 146.89-3.05L146.89-3.05Q147.46-1.36 148.05-0.53L148.05-0.53 148.05 4.33 147.92 4.33Q145.42 4.33 143.48 0.92L143.48 0.92Q142.76-0.44 142.19-2.11L142.19-2.11Q141.66-3.58 141.02-6.81L141.02-6.81Q140.56-9.1 140.25-12.5L140.25-12.5Q139.9-16.68 139.9-19.2L139.9-19.2 128.69-19.2Q127.29-23.69 127.29-23.75L127.29-23.75 139.17-23.75 139.17-31Q139.17-31.05 139.22-31.05ZM113.73-5.6L113.73-30.39 126.74-30.39 126.74-5.6 123.11-5.6 123.11-25.51 117.36-25.51 117.36-5.6 113.73-5.6ZM144.58-30.19L144.58-30.19 147.3-30.19Q147.55-29.64 147.79-28.02L147.79-28.02Q147.96-26.46 147.96-25.55L147.96-25.55 147.92-25.53 145.28-25.53Q145.24-25.53 145.24-25.58L145.24-25.58Q145.24-27 144.62-30.04L144.62-30.04Q144.62-30.04 144.58-30.19ZM128.1-29.95L128.1-29.95 138.16-29.95 138.16-25.38 129.55-25.38Q129.48-25.47 129.2-26.43L129.2-26.43Q129.16-26.56 128.1-29.95ZM118.15-10.9L118.15-23.77 122.32-23.77 122.32-10.96Q122.32-2.97 125.66-0.07L125.66-0.07Q126.17 0.31 126.74 0.57L126.74 0.57 126.74 4.39Q126.23 4.39 124.76 3.91L124.76 3.91Q123.35 3.36 122.1 2.22L122.1 2.22Q121 1.03 120.59 0.24L120.59 0.24Q120.17-0.44 120.17-0.51L120.17-0.51 119.62 0.4Q119.18 1.12 118.06 2.24L118.06 2.24Q116.74 3.43 115.2 3.98L115.2 3.98Q113.84 4.39 113.38 4.39L113.38 4.39 113.38 0.59Q113.38 0.57 113.88 0.33L113.88 0.33Q114.48-0.02 115.16-0.68L115.16-0.68Q118.15-3.93 118.15-10.9L118.15-10.9ZM133.73-0.64L133.73-17.69 138.58-17.69 138.58-13.38 139.88-13.38 139.88-8.46 138.63-8.46Q138.58-8.46 138.58-8.42L138.58-8.42 138.58-0.64 141.39-0.64 141.39 4.26 128.1 4.26 126.67-0.64 128.56-0.64 128.56-16.61 132.71-16.61 132.71-0.64 133.73-0.64Z" transform="translate(-1.600000023841858, 31.110000610351562)"></path></g> <!----> <!----> <!----> <!----> <!----> <!----> <!----></g></g> <g data-gra="path-slogan" fill-rule="" class="tp-slogan iconsvg-slogansvg" fill="#3699ea" transform="translate(5,41.5)"><rect x="0" height="1" y="3.9750003814697266" width="1.220001220703125"></rect> <rect height="1" y="3.9750003814697266" width="1.220001220703125" x="135.27999877929688"></rect> <g transform="translate(4.220001220703125,0)"><g transform="scale(1)"><path d="M8.06-6.05L8.06-6.05L6.94-6.05Q6.52-7.78 4.55-7.83L4.55-7.83Q1.83-7.69 1.73-4.36L1.73-4.36Q1.73-0.80 4.59-0.80L4.59-0.80Q6.56-0.84 7.03-3.19L7.03-3.19L8.16-3.19Q7.64 0.05 4.36 0.14L4.36 0.14Q0.61 0 0.52-4.31L0.52-4.31Q0.70-8.63 4.55-8.81L4.55-8.81Q7.59-8.72 8.06-6.05ZM10.69-5.06L15.19-5.06L15.19-8.58L16.36-8.58L16.36 0L15.19 0L15.19-3.98L10.69-3.98L10.69 0L9.52 0L9.52-8.58L10.69-8.58L10.69-5.06ZM23.81 0L22.97-2.48L19.50-2.48L18.61 0L17.44 0L20.67-8.58L21.98-8.58L25.08 0L23.81 0ZM21.23-7.31L19.88-3.52L22.55-3.52L21.28-7.31L21.23-7.31ZM27.52-8.58L31.83-1.64L31.83-8.58L32.95-8.58L32.95 0L31.64 0L27.28-6.94L27.23-6.94L27.23 0L26.11 0L26.11-8.58L27.52-8.58ZM41.16-3.61L38.53-3.61L38.53-4.59L42.28-4.59L42.28 0L41.53 0L41.25-1.08Q40.27 0.09 38.44 0.14L38.44 0.14Q36.70 0.14 35.77-0.75L35.77-0.75Q34.36-2.06 34.41-4.36L34.41-4.36Q34.73-8.63 38.48-8.81L38.48-8.81Q41.67-8.63 42.14-6L42.14-6L41.02-6Q40.55-7.78 38.44-7.83L38.44-7.83Q35.77-7.64 35.63-4.31L35.63-4.31Q35.63-0.75 38.48-0.75L38.48-0.75Q39.52-0.75 40.27-1.31L40.27-1.31Q41.20-2.06 41.16-3.61L41.16-3.61ZM50.34-6.09L50.34-6.09L49.27-6.09Q49.17-7.73 47.11-7.83L47.11-7.83Q45.19-7.78 45.19-6.33L45.19-6.33Q45.19-5.39 46.22-5.25L46.22-5.25L48.66-4.69Q50.58-4.22 50.58-2.34L50.58-2.34Q50.53 0.05 47.20 0.14L47.20 0.14Q45.38 0.14 44.63-0.61L44.63-0.61Q43.69-1.31 43.73-2.77L43.73-2.77L44.86-2.77Q44.91-0.80 47.20-0.75L47.20-0.75Q49.45-0.80 49.50-2.20L49.50-2.20Q49.69-3.38 47.63-3.75L47.63-3.75L45.84-4.13Q44.02-4.64 44.02-6.19L44.02-6.19Q44.16-8.72 47.02-8.81L47.02-8.81Q50.25-8.81 50.34-6.09ZM53.20-5.06L57.70-5.06L57.70-8.58L58.88-8.58L58.88 0L57.70 0L57.70-3.98L53.20-3.98L53.20 0L52.03 0L52.03-8.58L53.20-8.58L53.20-5.06ZM66.33 0L65.48-2.48L62.02-2.48L61.13 0L59.95 0L63.19-8.58L64.50-8.58L67.59 0L66.33 0ZM63.75-7.31L62.39-3.52L65.06-3.52L63.80-7.31L63.75-7.31ZM78.23-6.09L78.23-6.09L77.16-6.09Q77.06-7.73 75-7.83L75-7.83Q73.08-7.78 73.08-6.33L73.08-6.33Q73.08-5.39 74.11-5.25L74.11-5.25L76.55-4.69Q78.47-4.22 78.47-2.34L78.47-2.34Q78.42 0.05 75.09 0.14L75.09 0.14Q73.27 0.14 72.52-0.61L72.52-0.61Q71.58-1.31 71.63-2.77L71.63-2.77L72.75-2.77Q72.80-0.80 75.09-0.75L75.09-0.75Q77.34-0.80 77.39-2.20L77.39-2.20Q77.58-3.38 75.52-3.75L75.52-3.75L73.73-4.13Q71.91-4.64 71.91-6.19L71.91-6.19Q72.05-8.72 74.91-8.81L74.91-8.81Q78.14-8.81 78.23-6.09ZM81.09-5.06L85.59-5.06L85.59-8.58L86.77-8.58L86.77 0L85.59 0L85.59-3.98L81.09-3.98L81.09 0L79.92 0L79.92-8.58L81.09-8.58L81.09-5.06ZM89.86-1.03L95.02-1.03L95.02 0L88.69 0L88.69-8.58L94.92-8.58L94.92-7.59L89.86-7.59L89.86-4.92L94.55-4.92L94.55-3.89L89.86-3.89L89.86-1.03ZM97.92-8.58L102.23-1.64L102.23-8.58L103.36-8.58L103.36 0L102.05 0L97.69-6.94L97.64-6.94L97.64 0L96.52 0L96.52-8.58L97.92-8.58ZM111.56-3.61L108.94-3.61L108.94-4.59L112.69-4.59L112.69 0L111.94 0L111.66-1.08Q110.67 0.09 108.84 0.14L108.84 0.14Q107.11 0.14 106.17-0.75L106.17-0.75Q104.77-2.06 104.81-4.36L104.81-4.36Q105.14-8.63 108.89-8.81L108.89-8.81Q112.08-8.63 112.55-6L112.55-6L111.42-6Q110.95-7.78 108.84-7.83L108.84-7.83Q106.17-7.64 106.03-4.31L106.03-4.31Q106.03-0.75 108.89-0.75L108.89-0.75Q109.92-0.75 110.67-1.31L110.67-1.31Q111.61-2.06 111.56-3.61L111.56-3.61ZM120-3.89L115.78-3.89L115.78 0L114.61 0L114.61-8.58L120.56-8.58L120.56-7.59L115.78-7.59L115.78-4.92L120-4.92L120-3.89ZM127.41-3.19L127.41-8.58L128.58-8.58L128.58-3.05Q128.44 0.05 125.06 0.14L125.06 0.14Q121.92 0.05 121.78-2.86L121.78-2.86L121.78-8.58L122.95-8.58L122.95-3.19Q123-0.84 125.11-0.80L125.11-0.80Q127.41-0.84 127.41-3.19L127.41-3.19Z" transform="translate(-0.515625, 8.8125)"></path></g></g></g></g></g><defs v-gra="od"></defs></svg>